<?xml version="1.0" encoding="UTF-8"?>
<svg version="1.1" xmlns="http://www.w3.org/2000/svg" width="233" height="120">
<path d="M0 0 C2.27683768 3.41525652 2.15245214 5.01846837 1.55859375 8.9921875 C0.73842381 11.94021093 -0.89931028 13.8315461 -3 16 C-0.03 16 2.94 16 6 16 C7.44209192 20.50653726 8.34223148 24.20875922 8 29 C6.14034925 30.85965075 3.05110881 30.24087549 0.55859375 30.31640625 C-1.39916992 30.37924805 -1.39916992 30.37924805 -3.39648438 30.44335938 C-4.7851533 30.48317608 -6.17382522 30.52288825 -7.5625 30.5625 C-8.95509183 30.60567989 -10.34767028 30.649294 -11.74023438 30.69335938 C-15.16004801 30.79985876 -18.57993763 30.90186923 -22 31 C-21.34402832 30.98428955 -20.68805664 30.9685791 -20.01220703 30.95239258 C-17.04989184 30.89016348 -14.0877139 30.85104832 -11.125 30.8125 C-10.09246094 30.78736328 -9.05992188 30.76222656 -7.99609375 30.73632812 C-7.00996094 30.72666016 -6.02382813 30.71699219 -5.0078125 30.70703125 C-4.09660645 30.6913208 -3.18540039 30.67561035 -2.24658203 30.65942383 C-1.50520996 30.77181396 -0.76383789 30.8842041 0 31 C0.66 31.99 1.32 32.98 2 34 C2.33 33.01 2.66 32.02 3 31 C3.99 31 4.98 31 6 31 C6.91088443 36.45073241 7.18297365 41.72785797 7.1875 47.25 C7.19974609 48.05179688 7.21199219 48.85359375 7.22460938 49.6796875 C7.23956164 55.64065754 7.23956164 55.64065754 5 59 C1.98459643 59.31635454 -0.82114359 59.44395581 -3.83984375 59.43359375 C-4.71774063 59.4388356 -5.59563751 59.44407745 -6.50013733 59.44947815 C-8.35872336 59.45590781 -10.21735004 59.45454916 -12.07592773 59.44604492 C-14.92309983 59.437543 -17.76826114 59.46626877 -20.61523438 59.49804688 C-22.41927023 59.49965911 -24.22330965 59.49908092 -26.02734375 59.49609375 C-27.30713356 59.51294472 -27.30713356 59.51294472 -28.61277771 59.53013611 C-34.50776702 59.46050098 -34.50776702 59.46050098 -37.01855469 57.11157227 C-39.22646044 52.36127951 -39.16159982 47.68003664 -39.1875 42.5 C-39.20876953 40.56640625 -39.20876953 40.56640625 -39.23046875 38.59375 C-39.0146557 35.22852954 -38.46189261 33.00468046 -37 30 C-37.66 29.67 -38.32 29.34 -39 29 C-39.05422947 27.5629191 -39.09289723 26.12524538 -39.125 24.6875 C-39.14820312 23.88699219 -39.17140625 23.08648437 -39.1953125 22.26171875 C-39 20 -39 20 -37 17 C-34.8359375 16.70703125 -34.8359375 16.70703125 -32.375 16.8125 C-31.14910156 16.85310547 -31.14910156 16.85310547 -29.8984375 16.89453125 C-29.27195312 16.92933594 -28.64546875 16.96414062 -28 17 C-28.66 16.154375 -29.32 15.30875 -30 14.4375 C-32.28380937 10.51220265 -32.58971053 8.46495113 -32 4 C-30.875 2 -30.875 2 -29 1 C-22.81727301 1 -19.51059416 4.50696245 -15.32421875 8.6640625 C-14.88722656 9.10492188 -14.45023438 9.54578125 -14 10 C-13.75765625 9.45730469 -13.5153125 8.91460937 -13.265625 8.35546875 C-10.16920764 1.74580862 -7.98233923 -2.42940759 0 0 Z M-1 20 C-0.360625 20.103125 0.27875 20.20625 0.9375 20.3125 C1.9584375 20.6528125 1.9584375 20.6528125 3 21 C3.33 21.99 3.66 22.98 4 24 C4 22.68 4 21.36 4 20 C2.35 20 0.7 20 -1 20 Z M-30 21 C-26 22 -26 22 -26 22 Z M-11 21 C-11 21.33 -11 21.66 -11 22 C-8.03 22 -5.06 22 -2 22 C-2 21.67 -2 21.34 -2 21 C-4.97 21 -7.94 21 -11 21 Z M-26 26 C-26 26.33 -26 26.66 -26 27 C-17.42 27 -8.84 27 0 27 C0 26.67 0 26.34 0 26 C-8.58 26 -17.16 26 -26 26 Z M-36 27 C-35 29 -35 29 -35 29 Z M-34 27 C-34 27.33 -34 27.66 -34 28 C-32.35 28 -30.7 28 -29 28 C-29 27.67 -29 27.34 -29 27 C-30.65 27 -32.3 27 -34 27 Z M-34 32 C-33.67 32.66 -33.34 33.32 -33 34 C-32.67 33.34 -32.34 32.68 -32 32 C-32.66 32 -33.32 32 -34 32 Z M-35 34 C-35.90375653 40.32629569 -35.90375653 45.67370431 -35 52 C-34.67 52 -34.34 52 -34 52 C-34 46.06 -34 40.12 -34 34 C-34.33 34 -34.66 34 -35 34 Z M2 50 C2 51.32 2 52.64 2 54 C-9.55 54 -21.1 54 -33 54 C-33.33 53.34 -33.66 52.68 -34 52 C-34 52.99 -34 53.98 -34 55 C-26.50297498 55.9181738 -19.11097608 56.1528713 -11.5625 56.125 C-9.95084961 56.13080078 -9.95084961 56.13080078 -8.30664062 56.13671875 C-6.76459961 56.13478516 -6.76459961 56.13478516 -5.19140625 56.1328125 C-4.26529541 56.13168457 -3.33918457 56.13055664 -2.38500977 56.12939453 C0.14861459 56.09733393 0.14861459 56.09733393 3 55 C3 53.35 3 51.7 3 50 C2.67 50 2.34 50 2 50 Z " fill="#756F27" transform="translate(62,27)"/>
<path d="M0 0 C6.1157256 3.16234558 12.10870663 9.75381358 14.4609375 16.21875 C16.17918008 24.65790605 15.83521496 32.76261463 11.44921875 40.265625 C7.1714914 46.13129659 1.97244028 49.68595994 -5.09765625 51.38671875 C-11.21073162 52.16474652 -15.83026649 50.32615825 -21.09765625 47.38671875 C-21.75765625 46.72671875 -22.41765625 46.06671875 -23.09765625 45.38671875 C-23.42765625 52.97671875 -23.75765625 60.56671875 -24.09765625 68.38671875 C-27.39765625 68.38671875 -30.69765625 68.38671875 -34.09765625 68.38671875 C-34.09765625 45.94671875 -34.09765625 23.50671875 -34.09765625 0.38671875 C-31.12765625 0.38671875 -28.15765625 0.38671875 -25.09765625 0.38671875 C-24.43765625 1.70671875 -23.77765625 3.02671875 -23.09765625 4.38671875 C-22.16953125 3.74734375 -21.24140625 3.10796875 -20.28515625 2.44921875 C-14.30714122 -1.41890862 -6.8713857 -2.00895262 0 0 Z M-21.91015625 14.44921875 C-25.07109517 19.60654015 -24.64144487 25.54854372 -24.09765625 31.38671875 C-22.89634387 35.1277622 -20.90658929 37.62681196 -18.03515625 40.32421875 C-13.36135592 42.01474227 -8.99196686 42.25495125 -4.09765625 41.38671875 C-0.31655689 39.37192335 2.05447277 36.71382116 4.33984375 33.13671875 C5.72109729 26.38392365 5.73715741 20.16706243 2.2265625 14.08203125 C-0.53578381 10.54557609 -3.73286478 8.82582897 -8.1171875 8.01171875 C-14.2277865 7.63783889 -17.98334484 9.98077818 -21.91015625 14.44921875 Z " fill="#7B7D37" transform="translate(195.09765625,36.61328125)"/>
<path d="M0 0 C5.18521668 3.7037262 7.99740268 7.31688923 9.13183594 13.63500977 C9.23270508 14.33295654 9.33357422 15.03090332 9.4375 15.75 C9.55512695 16.48597412 9.67275391 17.22194824 9.79394531 17.98022461 C11.29030669 28.20717842 11.32581586 38.67010485 9.625 48.875 C6.325 48.875 3.025 48.875 -0.375 48.875 C-1.85981859 45.90536282 -1.55190385 42.85963896 -1.5859375 39.6015625 C-1.61400731 38.12238479 -1.64267179 36.64321827 -1.671875 35.1640625 C-1.71312659 32.83138354 -1.75001228 30.49891316 -1.77636719 28.16601562 C-1.80400547 25.91492544 -1.8498752 23.66478559 -1.8984375 21.4140625 C-1.90169037 20.71914703 -1.90494324 20.02423157 -1.90829468 19.30825806 C-2.01111669 15.24957015 -2.39443174 12.73616994 -5.375 9.875 C-8.99430698 8.66856434 -11.56731005 8.55231441 -15.375 8.875 C-18.679417 10.55838224 -20.78415977 11.74194576 -22.51708984 15.06518555 C-23.56639589 18.50185694 -23.70035763 21.55198395 -23.7890625 25.14453125 C-23.80842865 25.82553391 -23.8277948 26.50653656 -23.8477478 27.20817566 C-23.90718132 29.36782593 -23.953782 31.52753057 -24 33.6875 C-24.03821328 35.15822544 -24.07726694 36.62892929 -24.1171875 38.09960938 C-24.21285183 41.69120789 -24.29701575 45.28296913 -24.375 48.875 C-27.675 48.875 -30.975 48.875 -34.375 48.875 C-34.375 32.705 -34.375 16.535 -34.375 -0.125 C-31.075 -0.125 -27.775 -0.125 -24.375 -0.125 C-24.045 1.195 -23.715 2.515 -23.375 3.875 C-22.446875 3.235625 -21.51875 2.59625 -20.5625 1.9375 C-14.2958729 -2.11737636 -7.03168705 -2.34389568 0 0 Z " fill="#7B7D39" transform="translate(148.375,37.125)"/>
<path d="M0 0 C1.76923828 0.01353516 1.76923828 0.01353516 3.57421875 0.02734375 C4.47785156 0.03894531 5.38148437 0.05054688 6.3125 0.0625 C7.30280231 4.18298864 7.18375129 6.20992381 5.3125 10.0625 C3.32682292 9.99739583 1.34114583 9.93229167 -0.64453125 9.8671875 C-3.00109719 9.92995538 -3.00109719 9.92995538 -5.6875 12.0625 C-6.48548218 14.47857417 -6.48548218 14.47857417 -6.875 17.1875 C-7.143125 18.79625 -7.41125 20.405 -7.6875 22.0625 C-3.3975 22.0625 0.8925 22.0625 5.3125 22.0625 C5.41015625 28.99609375 5.41015625 28.99609375 5.3125 31.0625 C4.9825 31.3925 4.6525 31.7225 4.3125 32.0625 C0.3525 32.0625 -3.6075 32.0625 -7.6875 32.0625 C-7.6875 44.9325 -7.6875 57.8025 -7.6875 71.0625 C-10.9875 71.0625 -14.2875 71.0625 -17.6875 71.0625 C-17.6875 58.1925 -17.6875 45.3225 -17.6875 32.0625 C-20.3275 32.0625 -22.9675 32.0625 -25.6875 32.0625 C-26.6875 31.0625 -26.6875 31.0625 -26.8203125 29.25 C-26.81773438 28.528125 -26.81515625 27.80625 -26.8125 27.0625 C-26.81507812 26.340625 -26.81765625 25.61875 -26.8203125 24.875 C-26.6875 23.0625 -26.6875 23.0625 -25.6875 22.0625 C-23.03286879 21.60790142 -20.36560862 21.36006762 -17.6875 21.0625 C-17.749375 19.886875 -17.81125 18.71125 -17.875 17.5 C-17.85440442 11.67144956 -16.01552542 7.58972923 -12.1875 3.1875 C-8.1914711 -0.20912457 -5.07800628 -0.05027729 0 0 Z " fill="#7B7D37" transform="translate(104.6875,14.9375)"/>
<path d="M0 0 C0.98742187 -0.020625 1.97484375 -0.04125 2.9921875 -0.0625 C4.40371094 -0.07023437 4.40371094 -0.07023437 5.84375 -0.078125 C6.69130859 -0.0874707 7.53886719 -0.09681641 8.41210938 -0.10644531 C9.44561523 0.06999512 9.44561523 0.06999512 10.5 0.25 C12.93816143 3.90724214 12.97829921 6.93882219 13.1875 11.1875 C13.23455078 11.90357422 13.28160156 12.61964844 13.33007812 13.35742188 C13.52937606 16.88270835 13.46629872 19.86350041 12.5 23.25 C-11.45988353 24.94281786 -11.45988353 24.94281786 -22.5 23.25 C-24.20913373 19.83173253 -23.68458479 16.01645237 -23.6875 12.25 C-23.69974609 11.41726562 -23.71199219 10.58453125 -23.72460938 9.7265625 C-23.72654297 8.92992188 -23.72847656 8.13328125 -23.73046875 7.3125 C-23.73457764 6.58160156 -23.73868652 5.85070313 -23.74291992 5.09765625 C-23.5 3.25 -23.5 3.25 -21.5 1.25 C-14.52486352 -0.17876685 -7.09245336 0.03823425 0 0 Z " fill="#E2AF02" transform="translate(51.5,57.75)"/>
<path d="M0 0 C2.27683768 3.41525652 2.15245214 5.01846837 1.55859375 8.9921875 C0.73842381 11.94021093 -0.89931028 13.8315461 -3 16 C-0.03 16 2.94 16 6 16 C3.60880279 18.39119721 2.30355083 18.59712795 -1 19 C-1.99 18.67 -2.98 18.34 -4 18 C-4 18.66 -4 19.32 -4 20 C-13.24 20 -22.48 20 -32 20 C-31 18 -31 18 -28 17 C-28.66 16.154375 -29.32 15.30875 -30 14.4375 C-32.28380937 10.51220265 -32.58971053 8.46495113 -32 4 C-30.875 2 -30.875 2 -29 1 C-22.81727301 1 -19.51059416 4.50696245 -15.32421875 8.6640625 C-14.88722656 9.10492188 -14.45023438 9.54578125 -14 10 C-13.75765625 9.45730469 -13.5153125 8.91460937 -13.265625 8.35546875 C-10.16920764 1.74580862 -7.98233923 -2.42940759 0 0 Z " fill="#7A7C37" transform="translate(62,27)"/>
<path d="M0 0 C5.94 1.485 5.94 1.485 12 3 C12 3.33 12 3.66 12 4 C6.555 4.495 6.555 4.495 1 5 C0.814375 6.5675 0.62875 8.135 0.4375 9.75 C0.33308594 10.63171875 0.22867187 11.5134375 0.12109375 12.421875 C-0.05482077 17.61986544 0.56808326 22.81699909 1 28 C13.21 28 25.42 28 38 28 C38 20.08 38 12.16 38 4 C38.99 4 39.98 4 41 4 C41.91088443 9.45073241 42.18297365 14.72785797 42.1875 20.25 C42.19974609 21.05179688 42.21199219 21.85359375 42.22460938 22.6796875 C42.23956164 28.64065754 42.23956164 28.64065754 40 32 C36.98459643 32.31635454 34.17885641 32.44395581 31.16015625 32.43359375 C30.28225937 32.4388356 29.40436249 32.44407745 28.49986267 32.44947815 C26.64127664 32.45590781 24.78264996 32.45454916 22.92407227 32.44604492 C20.07690017 32.437543 17.23173886 32.46626877 14.38476562 32.49804688 C12.58072977 32.49965911 10.77669035 32.49908092 8.97265625 32.49609375 C7.69286644 32.51294472 7.69286644 32.51294472 6.38722229 32.53013611 C0.49223298 32.46050098 0.49223298 32.46050098 -2.01855469 30.11157227 C-4.22646044 25.36127951 -4.16159982 20.68003664 -4.1875 15.5 C-4.20876953 13.56640625 -4.20876953 13.56640625 -4.23046875 11.59375 C-3.92132705 6.77323535 -2.65390719 3.98086079 0 0 Z " fill="#767537" transform="translate(27,54)"/>
<path d="M0 0 C0.98742187 -0.020625 1.97484375 -0.04125 2.9921875 -0.0625 C4.40371094 -0.07023437 4.40371094 -0.07023437 5.84375 -0.078125 C6.69130859 -0.0874707 7.53886719 -0.09681641 8.41210938 -0.10644531 C9.44561523 0.06999512 9.44561523 0.06999512 10.5 0.25 C12.93816143 3.90724214 12.97829921 6.93882219 13.1875 11.1875 C13.23455078 11.90357422 13.28160156 12.61964844 13.33007812 13.35742188 C13.52937606 16.88270835 13.46629872 19.86350041 12.5 23.25 C-11.45988353 24.94281786 -11.45988353 24.94281786 -22.5 23.25 C-24.20913373 19.83173253 -23.68458479 16.01645237 -23.6875 12.25 C-23.69974609 11.41726562 -23.71199219 10.58453125 -23.72460938 9.7265625 C-23.72654297 8.92992188 -23.72847656 8.13328125 -23.73046875 7.3125 C-23.73457764 6.58160156 -23.73868652 5.85070313 -23.74291992 5.09765625 C-23.5 3.25 -23.5 3.25 -21.5 1.25 C-14.52486352 -0.17876685 -7.09245336 0.03823425 0 0 Z M-7.48828125 1.4140625 C-15.3159391 1.54171318 -15.3159391 1.54171318 -22.5 4.25 C-22.52684679 6.89590014 -22.54676357 9.54153096 -22.5625 12.1875 C-22.57087891 12.94224609 -22.57925781 13.69699219 -22.58789062 14.47460938 C-22.59652441 16.39994313 -22.55224333 18.32535581 -22.5 20.25 C-19.98128618 22.76871382 -13.33458423 21.73967386 -9.9375 21.875 C-8.86435547 21.9265625 -7.79121094 21.978125 -6.68554688 22.03125 C-0.80752726 22.2760175 4.69030331 22.19363558 10.5 21.25 C10.55392397 18.47890693 10.59363455 15.70886182 10.625 12.9375 C10.64175781 12.15181641 10.65851562 11.36613281 10.67578125 10.55664062 C10.68222656 9.79931641 10.68867187 9.04199219 10.6953125 8.26171875 C10.70578613 7.56522217 10.71625977 6.86872559 10.72705078 6.15112305 C10.60574595 3.918827 10.60574595 3.918827 8.5 1.25 C6.11521432 0.84309543 6.11521432 0.84309543 3.3125 1 C2.24644531 1.02835938 1.18039063 1.05671875 0.08203125 1.0859375 C-2.44113036 1.20150215 -4.96460886 1.31024836 -7.48828125 1.4140625 Z " fill="#D9AF20" transform="translate(51.5,57.75)"/>
<path d="M0 0 C0.79622772 0.00141495 1.59245544 0.0028299 2.41281128 0.00428772 C4.9601413 0.0098928 7.50738397 0.02244611 10.0546875 0.03515625 C11.77994665 0.0401706 13.50520717 0.04473362 15.23046875 0.04882812 C19.46357541 0.05986388 23.69661664 0.07713189 27.9296875 0.09765625 C27.9296875 1.74765625 27.9296875 3.39765625 27.9296875 5.09765625 C24.23428348 6.32945759 20.82665372 6.22177737 16.98046875 6.1953125 C16.20785202 6.19389755 15.43523529 6.1924826 14.63920593 6.19102478 C12.17349361 6.18543091 9.70787235 6.17287958 7.2421875 6.16015625 C5.56966277 6.15514046 3.89713662 6.15057769 2.22460938 6.14648438 C-1.87373296 6.13546349 -5.97200729 6.11820309 -10.0703125 6.09765625 C-10.0703125 4.44765625 -10.0703125 2.79765625 -10.0703125 1.09765625 C-6.89740537 -0.48879732 -3.48205866 -0.02312588 0 0 Z " fill="#E8B81B" transform="translate(37.0703125,47.90234375)"/>
<path d="M0 0 C5.94 1.485 5.94 1.485 12 3 C12 3.33 12 3.66 12 4 C6.555 4.495 6.555 4.495 1 5 C0.34 10.61 -0.32 16.22 -1 22 C-1.99 22.33 -2.98 22.66 -4 23 C-4.05425226 20.60385874 -4.09379027 18.20896147 -4.125 15.8125 C-4.14175781 15.13896484 -4.15851562 14.46542969 -4.17578125 13.77148438 C-4.23131979 8.07878359 -3.12223078 4.68334617 0 0 Z " fill="#807C2B" transform="translate(27,54)"/>
<path d="M0 0 C2.625 -0.1875 2.625 -0.1875 5 0 C5.33 0.66 5.66 1.32 6 2 C8.46216348 2.26136355 10.84349465 2.42147223 13.3125 2.5 C17.79834476 2.64511772 20.86114365 2.93057182 25 5 C17.74 5 10.48 5 3 5 C2.34 7.31 1.68 9.62 1 12 C0.01 12 -0.98 12 -2 12 C-2.05422947 10.5629191 -2.09289723 9.12524538 -2.125 7.6875 C-2.14820312 6.88699219 -2.17140625 6.08648437 -2.1953125 5.26171875 C-2 3 -2 3 0 0 Z " fill="#807827" transform="translate(25,44)"/>
<path d="M0 0 C0.33 0 0.66 0 1 0 C1.33 3.96 1.66 7.92 2 12 C5.3 12 8.6 12 12 12 C12 12.33 12 12.66 12 13 C9.69 13.33 7.38 13.66 5 14 C20.84 14.495 20.84 14.495 37 15 C37 15.33 37 15.66 37 16 C31.92803651 16.09884645 26.856633 16.17145653 21.78393555 16.21972656 C20.05825027 16.23984739 18.33263322 16.26714748 16.60717773 16.30175781 C14.1272703 16.35025758 11.64826372 16.37296304 9.16796875 16.390625 C8.39599655 16.41127014 7.62402435 16.43191528 6.82865906 16.45318604 C1.48233946 16.45542782 1.48233946 16.45542782 -0.9909668 14.12011719 C-3.31161019 9.24412705 -1.54737499 4.93225778 0 0 Z " fill="#878740" transform="translate(26,70)"/>
<path d="M0 0 C0 1.65 0 3.3 0 5 C-4.09398801 4.93122222 -8.1870691 4.84330765 -12.28027344 4.73754883 C-13.67306089 4.70427127 -15.06598411 4.67624803 -16.45898438 4.65356445 C-18.45991378 4.62007311 -20.46046921 4.56618695 -22.4609375 4.51171875 C-23.66540527 4.48553467 -24.86987305 4.45935059 -26.11083984 4.43237305 C-27.0642627 4.28968994 -28.01768555 4.14700684 -29 4 C-29.66 3.01 -30.32 2.02 -31 1 C-26.77089482 0.83174865 -22.54170681 0.66567565 -18.3125 0.5 C-17.11431641 0.45230469 -15.91613281 0.40460937 -14.68164062 0.35546875 C-13.52470703 0.31035156 -12.36777344 0.26523437 -11.17578125 0.21875 C-9.58117065 0.1559082 -9.58117065 0.1559082 -7.9543457 0.09179688 C-5.30023521 0.00932885 -2.65511397 -0.01717131 0 0 Z " fill="#DAAC16" transform="translate(65,48)"/>
<path d="M0 0 C1.98 0 3.96 0 6 0 C5.01 0.66 4.02 1.32 3 2 C1.39349709 8.67800058 1.77459533 15.75935108 1.68359375 22.58984375 C1.66281265 23.88950577 1.64203156 25.18916779 1.62062073 26.5282135 C1.56575967 29.96236175 1.5161938 33.39656625 1.46777344 36.83081055 C1.4172936 40.3436374 1.36174661 43.85638384 1.30664062 47.36914062 C1.19949989 54.24602389 1.09795943 61.12297998 1 68 C0.67 68 0.34 68 0 68 C0 45.56 0 23.12 0 0 Z " fill="#7C7C4F" transform="translate(161,37)"/>
<path d="M0 0 C0.66022156 0.02644089 1.32044312 0.05288177 2.00067139 0.0801239 C4.10035713 0.16759268 6.19825482 0.27683454 8.296875 0.38671875 C9.72389515 0.45000878 11.15097926 0.51187379 12.578125 0.57226562 C16.06860108 0.72308132 19.55780818 0.89343316 23.046875 1.07421875 C22.716875 1.73421875 22.386875 2.39421875 22.046875 3.07421875 C17.67227093 3.27184223 13.29718825 3.45553246 8.921875 3.63671875 C7.684375 3.69279297 6.446875 3.74886719 5.171875 3.80664062 C3.37363281 3.87915039 3.37363281 3.87915039 1.5390625 3.953125 C-0.11053467 4.02382202 -0.11053467 4.02382202 -1.79345703 4.09594727 C-4.95727765 4.07419019 -7.85270543 3.68082258 -10.953125 3.07421875 C-7.40558203 -0.31453682 -4.7884588 -0.22319088 0 0 Z " fill="#88730C" transform="translate(40.953125,52.92578125)"/>
<path d="M0 0 C0.74362793 0.01047363 1.48725586 0.02094727 2.25341797 0.03173828 C3.46191406 0.04140625 3.46191406 0.04140625 4.69482422 0.05126953 C5.95746094 0.07640625 5.95746094 0.07640625 7.24560547 0.10205078 C8.51984375 0.11558594 8.51984375 0.11558594 9.81982422 0.12939453 C11.9202043 0.15299431 14.02043991 0.18886595 16.12060547 0.22705078 C16.12060547 0.55705078 16.12060547 0.88705078 16.12060547 1.22705078 C15.08419922 1.28763672 14.04779297 1.34822266 12.97998047 1.41064453 C11.61017674 1.49508449 10.24038572 1.57973075 8.87060547 1.66455078 C7.84773438 1.72352539 7.84773438 1.72352539 6.80419922 1.78369141 C3.41540576 1.9975473 0.43188249 2.39923153 -2.87939453 3.22705078 C-2.54939453 8.50705078 -2.21939453 13.78705078 -1.87939453 19.22705078 C0.43060547 19.88705078 2.74060547 20.54705078 5.12060547 21.22705078 C5.12060547 21.55705078 5.12060547 21.88705078 5.12060547 22.22705078 C2.48060547 22.22705078 -0.15939453 22.22705078 -2.87939453 22.22705078 C-4.58852827 18.80878331 -4.06397932 14.99350315 -4.06689453 11.22705078 C-4.07914063 10.39431641 -4.09138672 9.56158203 -4.10400391 8.70361328 C-4.1059375 7.90697266 -4.10787109 7.11033203 -4.10986328 6.28955078 C-4.11397217 5.55865234 -4.11808105 4.82775391 -4.12231445 4.07470703 C-3.7657889 1.36296293 -2.71118313 0.32753966 0 0 Z " fill="#E0B62B" transform="translate(31.87939453125,58.77294921875)"/>
<path d="M0 0 C0.99 0 1.98 0 3 0 C3.94220126 5.52708611 4.12116149 10.83758352 4.0625 16.4375 C4.05798828 17.26443359 4.05347656 18.09136719 4.04882812 18.94335938 C4.03715811 20.96227146 4.01922718 22.98114574 4 25 C3.34 24.67 2.68 24.34 2 24 C2.03480469 22.73542969 2.03480469 22.73542969 2.0703125 21.4453125 C2.08835937 20.34960938 2.10640625 19.25390625 2.125 18.125 C2.14820312 17.03445312 2.17140625 15.94390625 2.1953125 14.8203125 C2.30060534 11.8628949 2.30060534 11.8628949 0 10 C-0.1953125 7.6171875 -0.1953125 7.6171875 -0.125 4.875 C-0.10695313 3.96492188 -0.08890625 3.05484375 -0.0703125 2.1171875 C-0.04710938 1.41851562 -0.02390625 0.71984375 0 0 Z " fill="#6D6C37" transform="translate(65,58)"/>
<path d="M0 0 C1.76923828 0.01353516 1.76923828 0.01353516 3.57421875 0.02734375 C4.47785156 0.03894531 5.38148437 0.05054688 6.3125 0.0625 C7.30280231 4.18298864 7.18375129 6.20992381 5.3125 10.0625 C4.6525 9.7325 3.9925 9.4025 3.3125 9.0625 C3.6425 6.7525 3.9725 4.4425 4.3125 2.0625 C3.590625 2.248125 2.86875 2.43375 2.125 2.625 C-0.86829377 3.09062347 -2.77527007 2.80922562 -5.6875 2.0625 C-6.8321875 1.7840625 -6.8321875 1.7840625 -8 1.5 C-8.556875 1.355625 -9.11375 1.21125 -9.6875 1.0625 C-6.26517028 -0.07827657 -3.60076783 -0.03565117 0 0 Z " fill="#7B7D43" transform="translate(104.6875,14.9375)"/>
<path d="M0 0 C3.63 0 7.26 0 11 0 C11.09765625 6.93359375 11.09765625 6.93359375 11 9 C10 10 10 10 7.93359375 10.09765625 C7.10988281 10.08605469 6.28617187 10.07445312 5.4375 10.0625 C4.61121094 10.05347656 3.78492187 10.04445313 2.93359375 10.03515625 C2.29550781 10.02355469 1.65742187 10.01195312 1 10 C1 9.67 1 9.34 1 9 C3.64 8.34 6.28 7.68 9 7 C9.33 5.35 9.66 3.7 10 2 C8.02 2.66 6.04 3.32 4 4 C3.67 3.34 3.34 2.68 3 2 C2.01 2 1.02 2 0 2 C0 1.34 0 0.68 0 0 Z " fill="#7A7B47" transform="translate(99,37)"/>
<path d="M0 0 C2 2 2 2 2.1953125 5.0390625 C2.17210937 6.22242187 2.14890625 7.40578125 2.125 8.625 C2.10695313 9.81351563 2.08890625 11.00203125 2.0703125 12.2265625 C2.04710937 13.14179687 2.02390625 14.05703125 2 15 C1.01 15.33 0.02 15.66 -1 16 C-1.02685095 13.52076199 -1.04676547 11.0418116 -1.0625 8.5625 C-1.07506836 7.50192383 -1.07506836 7.50192383 -1.08789062 6.41992188 C-1.09653588 4.61306441 -1.05220011 2.80612397 -1 1 C-0.67 0.67 -0.34 0.34 0 0 Z " fill="#6C6F30" transform="translate(24,61)"/>
<path d="M0 0 C0.99 0.495 0.99 0.495 2 1 C2.68125673 3.66200315 3.22698429 6.23578879 3.6875 8.9375 C3.889198 10.08980103 3.889198 10.08980103 4.0949707 11.26538086 C5.03284299 17.08803013 5.01952359 22.16091033 4 28 C3.67 28 3.34 28 3 28 C2.93941406 26.92621094 2.87882813 25.85242188 2.81640625 24.74609375 C2.73192349 23.30988685 2.64727946 21.87368942 2.5625 20.4375 C2.52318359 19.73302734 2.48386719 19.02855469 2.44335938 18.30273438 C2.07286076 12.11825747 1.28669269 6.06583696 0 0 Z " fill="#6A7447" transform="translate(154,44)"/>
<path d="M0 0 C0.33 0 0.66 0 1 0 C1 4.95 1 9.9 1 15 C1.66 15.33 2.32 15.66 3 16 C2.6875 17.9375 2.6875 17.9375 2 20 C1.01 20.33 0.02 20.66 -1 21 C-2.60725635 17.78548731 -2.05748185 14.56387464 -2 11 C-1.67 11 -1.34 11 -1 11 C-0.67 7.37 -0.34 3.74 0 0 Z " fill="#7D7F30" transform="translate(149,65)"/>
<path d="M0 0 C0.33 1.32 0.66 2.64 1 4 C0.360625 4.28875 -0.27875 4.5775 -0.9375 4.875 C-3.15206079 5.82823451 -3.15206079 5.82823451 -4 8 C-4.22858114 10.0374763 -4.41024278 12.08040303 -4.5625 14.125 C-4.64628906 15.22070312 -4.73007813 16.31640625 -4.81640625 17.4453125 C-4.87699219 18.28835937 -4.93757813 19.13140625 -5 20 C-5.66 19.67 -6.32 19.34 -7 19 C-7.3643042 12.07822015 -6.65001767 6.95287683 -1.8125 1.5625 C-1.214375 1.046875 -0.61625 0.53125 0 0 Z " fill="#767743" transform="translate(94,17)"/>
<path d="M0 0 C7.51419167 -0.44418867 12.86103208 -0.63833132 19 4 C19.33 4.66 19.66 5.32 20 6 C18.9790625 5.505 18.9790625 5.505 17.9375 5 C14.49159762 3.82692685 11.61602578 3.85819507 8 4 C8.33 3.34 8.66 2.68 9 2 C6.03 1.67 3.06 1.34 0 1 C0 0.67 0 0.34 0 0 Z " fill="#7E8048" transform="translate(181,36)"/>
<path d="M0 0 C1.46373047 0.02707031 1.46373047 0.02707031 2.95703125 0.0546875 C3.69308594 0.07789063 4.42914063 0.10109375 5.1875 0.125 C5.1875 0.455 5.1875 0.785 5.1875 1.125 C4.61902344 1.16238281 4.05054688 1.19976562 3.46484375 1.23828125 C-1.89685193 1.69478622 -5.9794508 2.75989082 -10.8125 5.125 C-10.8125 4.135 -10.8125 3.145 -10.8125 2.125 C-7.04027911 0.37336544 -4.145861 -0.09990027 0 0 Z " fill="#7D7F44" transform="translate(139.8125,35.875)"/>
<path d="M0 0 C2.97 0.495 2.97 0.495 6 1 C2.80417026 3.13055316 1.30339289 3.40484299 -2.4375 3.75 C-3.38496094 3.84796875 -4.33242188 3.9459375 -5.30859375 4.046875 C-8 4 -8 4 -12 2 C-8.04 2 -4.08 2 0 2 C0 1.34 0 0.68 0 0 Z " fill="#786F1B" transform="translate(58,45)"/>
<path d="M0 0 C0.99 0 1.98 0 3 0 C4.4783226 2.95664519 4.06032783 5.74229737 4 9 C3.01 9.495 3.01 9.495 2 10 C1.34 6.7 0.68 3.4 0 0 Z " fill="#D4A61A" transform="translate(60,59)"/>
<path d="M0 0 C0.66 0.33 1.32 0.66 2 1 C1.125 7.75 1.125 7.75 0 10 C-0.66 9.67 -1.32 9.34 -2 9 C-2.125 6.625 -2.125 6.625 -2 4 C-1.34 3.34 -0.68 2.68 0 2 C0 1.34 0 0.68 0 0 Z " fill="#75753E" transform="translate(110,15)"/>
<path d="M0 0 C0.33 0 0.66 0 1 0 C1.33 1.98 1.66 3.96 2 6 C2.99 6.33 3.98 6.66 5 7 C4.01 7.99 3.02 8.98 2 10 C0 8 0 8 -0.1953125 6.0546875 C-0.13020833 4.03645833 -0.06510417 2.01822917 0 0 Z " fill="#44461E" transform="translate(147,76)"/>
<path d="" fill="#FFFFFF" transform="translate(0,0)"/>
<path d="" fill="#FFFFFF" transform="translate(0,0)"/>
<path d="" fill="#FFFFFF" transform="translate(0,0)"/>
<path d="" fill="#FFFFFF" transform="translate(0,0)"/>
<path d="" fill="#FFFFFF" transform="translate(0,0)"/>
<path d="" fill="#FFFFFF" transform="translate(0,0)"/>
<path d="" fill="#FFFFFF" transform="translate(0,0)"/>
<path d="" fill="#FFFFFF" transform="translate(0,0)"/>
<path d="" fill="#FFFFFF" transform="translate(0,0)"/>
<path d="" fill="#FFFFFF" transform="translate(0,0)"/>
<path d="" fill="#FFFFFF" transform="translate(0,0)"/>
<path d="" fill="#FFFFFF" transform="translate(0,0)"/>
<path d="" fill="#FFFFFF" transform="translate(0,0)"/>
<path d="" fill="#FFFFFF" transform="translate(0,0)"/>
<path d="" fill="#FFFFFF" transform="translate(0,0)"/>
<path d="" fill="#FFFFFF" transform="translate(0,0)"/>
<path d="" fill="#FFFFFF" transform="translate(0,0)"/>
<path d="" fill="#FFFFFF" transform="translate(0,0)"/>
<path d="" fill="#FFFFFF" transform="translate(0,0)"/>
<path d="" fill="#FFFFFF" transform="translate(0,0)"/>
<path d="" fill="#FFFFFF" transform="translate(0,0)"/>
<path d="" fill="#FFFFFF" transform="translate(0,0)"/>
<path d="" fill="#FFFFFF" transform="translate(0,0)"/>
<path d="" fill="#FFFFFF" transform="translate(0,0)"/>
<path d="" fill="#FFFFFF" transform="translate(0,0)"/>
<path d="" fill="#FFFFFF" transform="translate(0,0)"/>
<path d="" fill="#FFFFFF" transform="translate(0,0)"/>
<path d="" fill="#FFFFFF" transform="translate(0,0)"/>
<path d="" fill="#FFFFFF" transform="translate(0,0)"/>
<path d="" fill="#FFFFFF" transform="translate(0,0)"/>
<path d="" fill="#FFFFFF" transform="translate(0,0)"/>
<path d="" fill="#FFFFFF" transform="translate(0,0)"/>
<path d="" fill="#FFFFFF" transform="translate(0,0)"/>
<path d="" fill="#FFFFFF" transform="translate(0,0)"/>
<path d="" fill="#FFFFFF" transform="translate(0,0)"/>
<path d="" fill="#FFFFFF" transform="translate(0,0)"/>
<path d="" fill="#FFFFFF" transform="translate(0,0)"/>
<path d="" fill="#FFFFFF" transform="translate(0,0)"/>
<path d="" fill="#FFFFFF" transform="translate(0,0)"/>
<path d="" fill="#FFFFFF" transform="translate(0,0)"/>
<path d="" fill="#FFFFFF" transform="translate(0,0)"/>
<path d="" fill="#FFFFFF" transform="translate(0,0)"/>
<path d="" fill="#FFFFFF" transform="translate(0,0)"/>
<path d="" fill="#FFFFFF" transform="translate(0,0)"/>
<path d="" fill="#FFFFFF" transform="translate(0,0)"/>
<path d="" fill="#FFFFFF" transform="translate(0,0)"/>
<path d="" fill="#FFFFFF" transform="translate(0,0)"/>
<path d="" fill="#FFFFFF" transform="translate(0,0)"/>
<path d="" fill="#FFFFFF" transform="translate(0,0)"/>
<path d="" fill="#FFFFFF" transform="translate(0,0)"/>
<path d="" fill="#FFFFFF" transform="translate(0,0)"/>
<path d="" fill="#FFFFFF" transform="translate(0,0)"/>
<path d="" fill="#FFFFFF" transform="translate(0,0)"/>
<path d="" fill="#FFFFFF" transform="translate(0,0)"/>
<path d="" fill="#FFFFFF" transform="translate(0,0)"/>
<path d="" fill="#FFFFFF" transform="translate(0,0)"/>
<path d="" fill="#FFFFFF" transform="translate(0,0)"/>
<path d="" fill="#FFFFFF" transform="translate(0,0)"/>
<path d="" fill="#FFFFFF" transform="translate(0,0)"/>
<path d="" fill="#FFFFFF" transform="translate(0,0)"/>
<path d="" fill="#FFFFFF" transform="translate(0,0)"/>
<path d="" fill="#FFFFFF" transform="translate(0,0)"/>
<path d="" fill="#FFFFFF" transform="translate(0,0)"/>
<path d="" fill="#FFFFFF" transform="translate(0,0)"/>
<path d="" fill="#FFFFFF" transform="translate(0,0)"/>
<path d="" fill="#FFFFFF" transform="translate(0,0)"/>
<path d="" fill="#FFFFFF" transform="translate(0,0)"/>
</svg>
